<svg id="Layer_1" data-name="Layer 1" xmlns="http://www.w3.org/2000/svg" viewBox="0 0 432 122.01"><defs><style>.cls-1{fill:#fff}</style></defs><title>ilr-wordmark-negative</title><path class="cls-1" d="M305.26 110.61H12.36l-.94-.94-.02.02V12.3l.9-.9h72.37l.9-.89V.88L84.69 0H.87L0 .87v120.3l.85.84h304.4l.91-.9v-9.6l-.9-.9z"/><path class="cls-1" d="M31.18 30.75V90.9l.88.88h10.61l.89-.88V30.75l-.89-.88H32.06l-.88.88zm37.27 49.54V30.75l-.89-.88H56.95l-.89.88V90.9l.89.88h39.8l.89-.88v-8.84l-.89-.89H69.33l-.88-.88z"/><path class="cls-1" d="M175.36 152.46l.89-.89v-23l.88-.89H186l1.77.89 17.69 23 1.77.89h5.3l.89-.89v-8.84l-11.5-15v-.88c7.07-1.77 13.27-8 13.27-17.69 0-12.39-8.85-18.58-21.23-18.58h-29.21l-.89.89v60.14l.89.89zm.89-50.42l.88-.88h16.81c5.3 0 8.84 1.77 8.84 8s-3.54 8-8.84 8h-16.81l-.88-.89zm90.22 51.3c18.57 0 25.65-8.84 25.65-18.57 0-12.39-9.73-17.69-22.11-19.46s-15.93-3.54-15.93-8.85c0-3.53 2.66-6.19 10.62-6.19 9.73 0 12.38 2.66 12.38 8l.89.89h10.61l.88-.89c0-10.61-7.07-18.57-23.88-18.57s-23.88 8-23.88 16.8c0 12.39 9.73 16.81 22.11 18.58s15.92 3.54 15.92 9.73c0 5.31-4.42 8-12.38 8-10.61 0-14.15-3.54-14.15-9.73l-.89-.89H241.7l-.88.89c0 11.42 7.96 20.26 25.65 20.26zm50.26 0c9.73 0 18.58-4.42 20.35-15l-.89-.89h-10.61l-.89.89c-.88 2.65-3.53 4.42-8 4.42-6.19 0-9.73-4.42-9.73-12.38s3.58-12.38 9.77-12.38c4.43 0 7.08 1.77 8 4.42l.89.89h10.61l.89-.89c-1.77-10.61-10.62-15-20.35-15-13.26 0-22.11 8.84-22.11 23s8.81 22.92 22.07 22.92zm48.8-45.99a15.58 15.58 0 0 0-11.5 4.42h-.88V91.43l-.89-.89h-10.61l-.88.89v60.14l.88.89h10.61l.89-.89v-22.11c0-8 3.54-11.5 9.73-11.5 5.31 0 7.07 3.54 7.07 8v25.65l.89.89h10.61l.89-.89V125c0-10.58-6.19-17.65-16.81-17.65zm42.61 0c-13.27 0-22.11 8.84-22.11 23s8.84 23 22.11 23 22.11-8.84 22.11-23-8.84-23-22.11-23zm0 35.38c-6.19 0-9.73-4.42-9.73-12.38S402 118 408.14 118s9.73 4.43 9.73 12.39-3.54 12.34-9.73 12.34zm46.21-35.38c-13.27 0-22.12 8.84-22.12 23s8.85 23 22.12 23 22.11-8.84 22.11-23-8.85-23-22.11-23zm0 35.38c-6.2 0-9.73-4.42-9.73-12.38s3.53-12.35 9.73-12.35 9.73 4.43 9.73 12.39-3.54 12.34-9.73 12.34z" transform="translate(-60.84 -60.67)"/><path class="cls-1" d="M431.12 29.87H420.5l-.88.88V90.9l.88.88h10.62l.88-.88V30.75l-.88-.88z"/></svg>